<svg width="28" height="28" viewBox="0 0 24 24" fill="none" xmlns="http://www.w3.org/2000/svg">
  <!-- Chat bubble outline -->
  <path d="M3 6.5C3 5.12 4.12 4 5.5 4H18.5C19.88 4 21 5.12 21 6.5V13.5C21 14.88 19.88 16 18.5 16H5.5C4.12 16 3 14.88 3 13.5V6.5Z" fill="#2E3192"/>
  <!-- Chat bubble inner -->
  <path d="M4 6.5C4 5.67 4.67 5 5.5 5H18.5C19.33 5 20 5.67 20 6.5V13.5C20 14.33 19.33 15 18.5 15H5.5C4.67 15 4 14.33 4 13.5V6.5Z" fill="white"/>
  <!-- Speech bubble tail -->
  <path d="M6.5 15L4 18L9 15H6.5Z" fill="#2E3192"/>
  <!-- Loop/handle -->
  <circle cx="18" cy="3.5" r="2" fill="#2E3192"/>
  <circle cx="18" cy="3.5" r="0.8" fill="white"/>
  <rect x="17.5" y="4.5" width="1" height="1" fill="#2E3192"/>
  <!-- Three dots -->
  <circle cx="9" cy="10" r="1" fill="#2E3192"/>
  <circle cx="12" cy="10" r="1" fill="#2E3192"/>
  <circle cx="15" cy="10" r="1" fill="#2E3192"/>
</svg>
